<svg width="1181" height="154" viewBox="0 0 1181 154" fill="none" xmlns="http://www.w3.org/2000/svg">
<path d="M13.06 105.956V2.59999H24.076V104.984C24.076 118.592 22.186 129.176 18.406 136.736C14.626 144.296 8.848 149.804 1.072 153.26L0.586001 152.45C4.906 149.426 8.038 144.296 9.982 137.06C12.034 129.932 13.06 119.564 13.06 105.956ZM64.5963 2.59999H75.6123V70.964C75.6123 84.032 78.7983 94.238 85.1703 101.582C91.6503 108.818 100.722 112.436 112.386 112.436C119.73 112.436 126.102 111.032 131.502 108.224C137.01 105.308 141.222 101.312 144.138 96.236C147.162 91.16 148.566 85.328 148.35 78.74L145.596 2.59999H156.612L153.858 78.74C153.426 91.7 149.538 101.528 142.194 108.224C134.958 114.92 124.59 118.268 111.09 118.268C96.5103 118.268 85.1163 114.056 76.9083 105.632C68.7003 97.1 64.5963 85.436 64.5963 70.64V2.59999ZM185.586 112.436L186.558 102.716H187.53C191.742 106.388 196.494 109.25 201.786 111.302C207.078 113.354 212.316 114.38 217.5 114.38C224.844 114.38 230.784 112.382 235.32 108.386C239.856 104.282 242.124 98.828 242.124 92.024C242.124 88.244 241.26 84.734 239.532 81.494C237.912 78.254 235.158 74.96 231.27 71.612C227.49 68.264 222.252 64.646 215.556 60.758C210.912 58.058 206.484 55.25 202.272 52.334C198.06 49.31 194.604 45.854 191.904 41.966C189.204 37.97 187.854 33.218 187.854 27.71C187.854 19.502 190.824 12.914 196.764 7.94599C202.704 2.86999 210.534 0.331993 220.254 0.331993C224.574 0.331993 229.218 0.817993 234.186 1.78999C239.154 2.65399 242.988 3.788 245.688 5.192L244.878 14.264H243.906C237.75 7.56799 229.866 4.21999 220.254 4.21999C213.342 4.21999 207.78 6.00199 203.568 9.566C199.356 13.022 197.25 17.72 197.25 23.66C197.25 28.088 198.384 31.922 200.652 35.162C203.028 38.294 206.052 41.156 209.724 43.748C213.396 46.232 217.338 48.662 221.55 51.038C226.41 53.846 231.108 56.816 235.644 59.948C240.288 63.08 244.068 66.86 246.984 71.288C250.008 75.608 251.52 81.062 251.52 87.65C251.52 93.698 250.116 99.044 247.308 103.688C244.5 108.224 240.504 111.788 235.32 114.38C230.244 116.972 224.304 118.268 217.5 118.268C213.18 118.268 208.104 117.728 202.272 116.648C196.44 115.568 190.878 114.164 185.586 112.436ZM306.185 116V5.84C304.565 5.84 301.217 6.164 296.141 6.812L264.389 10.862V2.59999H358.997V10.862L327.245 6.812C322.169 6.164 318.821 5.84 317.201 5.84V116H306.185ZM413.1 2.59999H424.926L464.616 101.744H465.588L491.508 37.592L477.414 2.59999H489.24L528.768 101.42H529.74L562.464 2.59999H574.29L527.634 118.268H524.07L493.776 42.938L463.32 118.268H459.756L413.1 2.59999ZM589.837 59.3C589.837 50.984 591.295 43.262 594.211 36.134C597.235 28.898 601.393 22.634 606.685 17.342C612.085 11.942 618.349 7.78399 625.477 4.86799C632.713 1.84399 640.489 0.331993 648.805 0.331993C657.121 0.331993 664.843 1.84399 671.971 4.86799C679.207 7.78399 685.471 11.942 690.763 17.342C696.163 22.634 700.321 28.898 703.237 36.134C706.261 43.262 707.773 50.984 707.773 59.3C707.773 67.616 706.261 75.392 703.237 82.628C700.321 89.756 696.163 96.02 690.763 101.42C685.471 106.712 679.207 110.87 671.971 113.894C664.843 116.81 657.121 118.268 648.805 118.268C640.489 118.268 632.713 116.81 625.477 113.894C618.349 110.87 612.085 106.712 606.685 101.42C601.393 96.02 597.235 89.756 594.211 82.628C591.295 75.392 589.837 67.616 589.837 59.3ZM602.149 59.3C602.149 70.316 604.093 79.982 607.981 88.298C611.869 96.506 617.323 102.932 624.343 107.576C631.363 112.112 639.517 114.38 648.805 114.38C658.093 114.38 666.247 112.112 673.267 107.576C680.287 102.932 685.741 96.452 689.629 88.136C693.517 79.82 695.461 70.208 695.461 59.3C695.461 48.392 693.517 38.834 689.629 30.626C685.741 22.31 680.287 15.83 673.267 11.186C666.247 6.54199 658.093 4.21999 648.805 4.21999C639.517 4.21999 631.363 6.54199 624.343 11.186C617.431 15.722 611.977 22.148 607.981 30.464C604.093 38.672 602.149 48.284 602.149 59.3ZM741.744 2.59999H763.452C774.9 2.59999 783.756 5.02999 790.02 9.88999C796.392 14.642 799.578 21.338 799.578 29.978C799.578 36.674 797.58 42.236 793.584 46.664C789.696 51.092 784.026 54.062 776.574 55.574V56.546C783.702 57.95 789.534 61.298 794.07 66.59C798.606 71.882 802.008 78.416 804.276 86.192C806.328 93.32 808.326 98.882 810.27 102.878C812.322 106.766 814.536 109.574 816.912 111.302C819.396 113.03 822.312 114.272 825.66 115.028V116H819.018C814.266 116 810.324 115.136 807.192 113.408C804.168 111.68 801.576 108.764 799.416 104.66C797.256 100.556 795.204 94.886 793.26 87.65C790.128 76.526 785.97 68.642 780.786 63.998C775.602 59.354 769.284 57.032 761.832 57.032H760.86V54.116H761.832C779.22 54.116 787.914 46.124 787.914 30.14C787.914 14.372 779.76 6.48799 763.452 6.48799H752.76V116H741.744V2.59999ZM835.801 112.436L836.773 102.716H837.745C841.957 106.388 846.709 109.25 852.001 111.302C857.293 113.354 862.531 114.38 867.715 114.38C875.059 114.38 880.999 112.382 885.535 108.386C890.071 104.282 892.339 98.828 892.339 92.024C892.339 88.244 891.475 84.734 889.747 81.494C888.127 78.254 885.373 74.96 881.485 71.612C877.705 68.264 872.467 64.646 865.771 60.758C861.127 58.058 856.699 55.25 852.487 52.334C848.275 49.31 844.819 45.854 842.119 41.966C839.419 37.97 838.069 33.218 838.069 27.71C838.069 19.502 841.039 12.914 846.979 7.94599C852.919 2.86999 860.749 0.331993 870.469 0.331993C874.789 0.331993 879.433 0.817993 884.401 1.78999C889.369 2.65399 893.203 3.788 895.903 5.192L895.093 14.264H894.121C887.965 7.56799 880.081 4.21999 870.469 4.21999C863.557 4.21999 857.995 6.00199 853.783 9.566C849.571 13.022 847.465 17.72 847.465 23.66C847.465 28.088 848.599 31.922 850.867 35.162C853.243 38.294 856.267 41.156 859.939 43.748C863.611 46.232 867.553 48.662 871.765 51.038C876.625 53.846 881.323 56.816 885.859 59.948C890.503 63.08 894.283 66.86 897.199 71.288C900.223 75.608 901.735 81.062 901.735 87.65C901.735 93.698 900.331 99.044 897.523 103.688C894.715 108.224 890.719 111.788 885.535 114.38C880.459 116.972 874.519 118.268 867.715 118.268C863.395 118.268 858.319 117.728 852.487 116.648C846.655 115.568 841.093 114.164 835.801 112.436ZM933.644 116V2.59999H944.66V55.088H1012.7V2.59999H1023.72V116H1012.7V58.976H944.66V116H933.644ZM1065.9 116V2.59999H1076.92V116H1065.9ZM1119.06 116V2.59999H1139.31C1152.38 2.59999 1162.53 5.40799 1169.76 11.024C1177 16.532 1180.62 24.254 1180.62 34.19C1180.62 44.126 1177 51.902 1169.76 57.518C1162.53 63.026 1152.38 65.78 1139.31 65.78H1130.07V116H1119.06ZM1139.31 6.48799H1130.07V61.892H1139.31C1159.07 61.892 1168.95 52.658 1168.95 34.19C1168.95 15.722 1159.07 6.48799 1139.31 6.48799Z" fill="#363636"/>
</svg>
